<svg id="SvgjsSvg1006" width="1715.84375" height="1607.0625" xmlns="http://www.w3.org/2000/svg" version="1.1" xmlns:xlink="http://www.w3.org/1999/xlink" xmlns:svgjs="http://svgjs.com/svgjs"><defs id="SvgjsDefs1007"><marker id="SvgjsMarker1034" markerWidth="16" markerHeight="12" refX="16" refY="6" viewBox="0 0 16 12" orient="auto" markerUnits="userSpaceOnUse" stroke-dasharray="0,0"><path id="SvgjsPath1035" d="M0,2 L14,6 L0,11 L0,2" fill="#323232" stroke="#323232" stroke-width="2"></path></marker><marker id="SvgjsMarker1050" markerWidth="16" markerHeight="12" refX="16" refY="6" viewBox="0 0 16 12" orient="auto" markerUnits="userSpaceOnUse" stroke-dasharray="0,0"><path id="SvgjsPath1051" d="M0,2 L14,6 L0,11 L0,2" fill="#323232" stroke="#323232" stroke-width="2"></path></marker><marker id="SvgjsMarker1054" markerWidth="16" markerHeight="12" refX="16" refY="6" viewBox="0 0 16 12" orient="auto" markerUnits="userSpaceOnUse" stroke-dasharray="0,0"><path id="SvgjsPath1055" d="M0,2 L14,6 L0,11 L0,2" fill="#323232" stroke="#323232" stroke-width="2"></path></marker><marker id="SvgjsMarker1068" markerWidth="16" markerHeight="12" refX="16" refY="6" viewBox="0 0 16 12" orient="auto" markerUnits="userSpaceOnUse" stroke-dasharray="0,0"><path id="SvgjsPath1069" d="M0,2 L14,6 L0,11 L0,2" fill="#323232" stroke="#323232" stroke-width="2"></path></marker><marker id="SvgjsMarker1072" markerWidth="16" markerHeight="12" refX="16" refY="6" viewBox="0 0 16 12" orient="auto" markerUnits="userSpaceOnUse" stroke-dasharray="0,0"><path id="SvgjsPath1073" d="M0,2 L14,6 L0,11 L0,2" fill="#323232" stroke="#323232" stroke-width="2"></path></marker><marker id="SvgjsMarker1086" markerWidth="16" markerHeight="12" refX="16" refY="6" viewBox="0 0 16 12" orient="auto" markerUnits="userSpaceOnUse" stroke-dasharray="0,0"><path id="SvgjsPath1087" d="M0,2 L14,6 L0,11 L0,2" fill="#323232" stroke="#323232" stroke-width="2"></path></marker><marker id="SvgjsMarker1097" markerWidth="16" markerHeight="12" refX="16" refY="6" viewBox="0 0 16 12" orient="auto" markerUnits="userSpaceOnUse" stroke-dasharray="0,0"><path id="SvgjsPath1098" d="M0,2 L14,6 L0,11 L0,2" fill="#323232" stroke="#323232" stroke-width="2"></path></marker><marker id="SvgjsMarker1111" markerWidth="16" markerHeight="12" refX="16" refY="6" viewBox="0 0 16 12" orient="auto" markerUnits="userSpaceOnUse" stroke-dasharray="0,0"><path id="SvgjsPath1112" d="M0,2 L14,6 L0,11 L0,2" fill="#323232" stroke="#323232" stroke-width="2"></path></marker><marker id="SvgjsMarker1119" markerWidth="16" markerHeight="12" refX="16" refY="6" viewBox="0 0 16 12" orient="auto" markerUnits="userSpaceOnUse" stroke-dasharray="0,0"><path id="SvgjsPath1120" d="M0,2 L14,6 L0,11 L0,2" fill="#323232" stroke="#323232" stroke-width="2"></path></marker><marker id="SvgjsMarker1129" markerWidth="16" markerHeight="12" refX="16" refY="6" viewBox="0 0 16 12" orient="auto" markerUnits="userSpaceOnUse" stroke-dasharray="0,0"><path id="SvgjsPath1130" d="M0,2 L14,6 L0,11 L0,2" fill="#323232" stroke="#323232" stroke-width="2"></path></marker><marker id="SvgjsMarker1153" markerWidth="16" markerHeight="12" refX="16" refY="6" viewBox="0 0 16 12" orient="auto" markerUnits="userSpaceOnUse" stroke-dasharray="0,0"><path id="SvgjsPath1154" d="M0,2 L14,6 L0,11 L0,2" fill="#323232" stroke="#323232" stroke-width="2"></path></marker><marker id="SvgjsMarker1161" markerWidth="16" markerHeight="12" refX="16" refY="6" viewBox="0 0 16 12" orient="auto" markerUnits="userSpaceOnUse" stroke-dasharray="0,0"><path id="SvgjsPath1162" d="M0,2 L14,6 L0,11 L0,2" fill="#323232" stroke="#323232" stroke-width="2"></path></marker><marker id="SvgjsMarker1165" markerWidth="16" markerHeight="12" refX="16" refY="6" viewBox="0 0 16 12" orient="auto" markerUnits="userSpaceOnUse" stroke-dasharray="0,0"><path id="SvgjsPath1166" d="M0,2 L14,6 L0,11 L0,2" fill="#323232" stroke="#323232" stroke-width="2"></path></marker><marker id="SvgjsMarker1169" markerWidth="16" markerHeight="12" refX="16" refY="6" viewBox="0 0 16 12" orient="auto" markerUnits="userSpaceOnUse" stroke-dasharray="0,0"><path id="SvgjsPath1170" d="M0,2 L14,6 L0,11 L0,2" fill="#323232" stroke="#323232" stroke-width="2"></path></marker><marker id="SvgjsMarker1181" markerWidth="16" markerHeight="12" refX="16" refY="6" viewBox="0 0 16 12" orient="auto" markerUnits="userSpaceOnUse" stroke-dasharray="0,0"><path id="SvgjsPath1182" d="M0,2 L14,6 L0,11 L0,2" fill="#323232" stroke="#323232" stroke-width="2"></path></marker><marker id="SvgjsMarker1189" markerWidth="16" markerHeight="12" refX="16" refY="6" viewBox="0 0 16 12" orient="auto" markerUnits="userSpaceOnUse" stroke-dasharray="0,0"><path id="SvgjsPath1190" d="M0,2 L14,6 L0,11 L0,2" fill="#323232" stroke="#323232" stroke-width="2"></path></marker><marker id="SvgjsMarker1199" markerWidth="16" markerHeight="12" refX="16" refY="6" viewBox="0 0 16 12" orient="auto" markerUnits="userSpaceOnUse" stroke-dasharray="0,0"><path id="SvgjsPath1200" d="M0,2 L14,6 L0,11 L0,2" fill="#323232" stroke="#323232" stroke-width="2"></path></marker><marker id="SvgjsMarker1203" markerWidth="16" markerHeight="12" refX="16" refY="6" viewBox="0 0 16 12" orient="auto" markerUnits="userSpaceOnUse" stroke-dasharray="0,0"><path id="SvgjsPath1204" d="M0,2 L14,6 L0,11 L0,2" fill="#323232" stroke="#323232" stroke-width="2"></path></marker><marker id="SvgjsMarker1213" markerWidth="16" markerHeight="12" refX="16" refY="6" viewBox="0 0 16 12" orient="auto" markerUnits="userSpaceOnUse" stroke-dasharray="0,0"><path id="SvgjsPath1214" d="M0,2 L14,6 L0,11 L0,2" fill="#323232" stroke="#323232" stroke-width="2"></path></marker><marker id="SvgjsMarker1223" markerWidth="16" markerHeight="12" refX="16" refY="6" viewBox="0 0 16 12" orient="auto" markerUnits="userSpaceOnUse" stroke-dasharray="0,0"><path id="SvgjsPath1224" d="M0,2 L14,6 L0,11 L0,2" fill="#323232" stroke="#323232" stroke-width="2"></path></marker><marker id="SvgjsMarker1235" markerWidth="16" markerHeight="12" refX="16" refY="6" viewBox="0 0 16 12" orient="auto" markerUnits="userSpaceOnUse" stroke-dasharray="0,0"><path id="SvgjsPath1236" d="M0,2 L14,6 L0,11 L0,2" fill="#323232" stroke="#323232" stroke-width="2"></path></marker><marker id="SvgjsMarker1243" markerWidth="16" markerHeight="12" refX="16" refY="6" viewBox="0 0 16 12" orient="auto" markerUnits="userSpaceOnUse" stroke-dasharray="0,0"><path id="SvgjsPath1244" d="M0,2 L14,6 L0,11 L0,2" fill="#323232" stroke="#323232" stroke-width="2"></path></marker><marker id="SvgjsMarker1253" markerWidth="16" markerHeight="12" refX="16" refY="6" viewBox="0 0 16 12" orient="auto" markerUnits="userSpaceOnUse" stroke-dasharray="0,0"><path id="SvgjsPath1254" d="M0,2 L14,6 L0,11 L0,2" fill="#323232" stroke="#323232" stroke-width="2"></path></marker><marker id="SvgjsMarker1257" markerWidth="16" markerHeight="12" refX="16" refY="6" viewBox="0 0 16 12" orient="auto" markerUnits="userSpaceOnUse" stroke-dasharray="0,0"><path id="SvgjsPath1258" d="M0,2 L14,6 L0,11 L0,2" fill="#323232" stroke="#323232" stroke-width="2"></path></marker><marker id="SvgjsMarker1265" markerWidth="16" markerHeight="12" refX="16" refY="6" viewBox="0 0 16 12" orient="auto" markerUnits="userSpaceOnUse" stroke-dasharray="0,0"><path id="SvgjsPath1266" d="M0,2 L14,6 L0,11 L0,2" fill="#323232" stroke="#323232" stroke-width="2"></path></marker><marker id="SvgjsMarker1281" markerWidth="16" markerHeight="12" refX="16" refY="6" viewBox="0 0 16 12" orient="auto" markerUnits="userSpaceOnUse" stroke-dasharray="0,0"><path id="SvgjsPath1282" d="M0,2 L14,6 L0,11 L0,2" fill="#323232" stroke="#323232" stroke-width="2"></path></marker><marker id="SvgjsMarker1295" markerWidth="16" markerHeight="12" refX="16" refY="6" viewBox="0 0 16 12" orient="auto" markerUnits="userSpaceOnUse" stroke-dasharray="0,0"><path id="SvgjsPath1296" d="M0,2 L14,6 L0,11 L0,2" fill="#323232" stroke="#323232" stroke-width="2"></path></marker><marker id="SvgjsMarker1305" markerWidth="16" markerHeight="12" refX="16" refY="6" viewBox="0 0 16 12" orient="auto" markerUnits="userSpaceOnUse" stroke-dasharray="0,0"><path id="SvgjsPath1306" d="M0,2 L14,6 L0,11 L0,2" fill="#323232" stroke="#323232" stroke-width="2"></path></marker><marker id="SvgjsMarker1319" markerWidth="16" markerHeight="12" refX="16" refY="6" viewBox="0 0 16 12" orient="auto" markerUnits="userSpaceOnUse" stroke-dasharray="0,0"><path id="SvgjsPath1320" d="M0,2 L14,6 L0,11 L0,2" fill="#323232" stroke="#323232" stroke-width="2"></path></marker><marker id="SvgjsMarker1329" markerWidth="16" markerHeight="12" refX="16" refY="6" viewBox="0 0 16 12" orient="auto" markerUnits="userSpaceOnUse" stroke-dasharray="0,0"><path id="SvgjsPath1330" d="M0,2 L14,6 L0,11 L0,2" fill="#323232" stroke="#323232" stroke-width="2"></path></marker><marker id="SvgjsMarker1339" markerWidth="16" markerHeight="12" refX="16" refY="6" viewBox="0 0 16 12" orient="auto" markerUnits="userSpaceOnUse" stroke-dasharray="0,0"><path id="SvgjsPath1340" d="M0,2 L14,6 L0,11 L0,2" fill="#323232" stroke="#323232" stroke-width="2"></path></marker><marker id="SvgjsMarker1349" markerWidth="16" markerHeight="12" refX="16" refY="6" viewBox="0 0 16 12" orient="auto" markerUnits="userSpaceOnUse" stroke-dasharray="0,0"><path id="SvgjsPath1350" d="M0,2 L14,6 L0,11 L0,2" fill="#323232" stroke="#323232" stroke-width="2"></path></marker></defs><g id="SvgjsG1008" transform="translate(25,65.16665649414062)"><path id="SvgjsPath1009" d="M 13.111114501953125 0L 258.8888854980469 0C 276.37037150065106 0 276.37037150065106 39.333343505859375 258.8888854980469 39.333343505859375L 13.111114501953125 39.333343505859375C -4.370371500651042 39.333343505859375 -4.370371500651042 0 13.111114501953125 0Z" stroke="rgba(50,50,50,1)" stroke-width="2" fill-opacity="1" fill="#ffffff"></path><g id="SvgjsG1010"><text id="SvgjsText1011" font-family="微软雅黑" text-anchor="middle" font-size="13px" width="252px" fill="#323232" font-weight="400" align="middle" lineHeight="125%" anchor="middle" family="微软雅黑" size="13px" weight="400" font-style="" opacity="1" y="10.041671752929688" transform="rotate(0)"><tspan id="SvgjsTspan1012" dy="16" x="136"><tspan id="SvgjsTspan1013" style="text-decoration:;">ReactDOM.render(&lt;App /&gt;,container)</tspan></tspan></text></g></g><g id="SvgjsG1014" transform="translate(560,25)"><path id="SvgjsPath1015" d="M 0 0L 64 0L 80 16L 80 100L 0 100L 0 0Z" stroke="none" fill-opacity="1" fill="#ffffaa"></path><path id="SvgjsPath1016" d="M 64 0L 64 16L 80 16Z" stroke="none" fill-opacity="1" fill="#cdcdcd"></path><path id="SvgjsPath1017" d="M 0 0L 64 0L 80 16L 80 100L 0 100L 0 0Z" stroke="none" fill="none"></path><g id="SvgjsG1018"><text id="SvgjsText1019" font-family="微软雅黑" text-anchor="start" font-size="13px" width="60px" fill="#323232" font-weight="400" align="middle" lineHeight="125%" anchor="start" family="微软雅黑" size="13px" weight="400" font-style="" opacity="1" y="0.375" transform="rotate(0)"><tspan id="SvgjsTspan1020" dy="16" x="10"><tspan id="SvgjsTspan1021" style="text-decoration:;"> {</tspan></tspan><tspan id="SvgjsTspan1022" dy="16" x="10"><tspan id="SvgjsTspan1023" style="text-decoration:;">    type,</tspan></tspan><tspan id="SvgjsTspan1024" dy="16" x="10"><tspan id="SvgjsTspan1025" style="text-decoration:;">    ref,</tspan></tspan><tspan id="SvgjsTspan1026" dy="16" x="10"><tspan id="SvgjsTspan1027" style="text-decoration:;">    key,</tspan></tspan><tspan id="SvgjsTspan1028" dy="16" x="10"><tspan id="SvgjsTspan1029" style="text-decoration:;">    props,</tspan></tspan><tspan id="SvgjsTspan1030" dy="16" x="10"><tspan id="SvgjsTspan1031" style="text-decoration:;">  }</tspan></tspan></text></g></g><g id="SvgjsG1032"><path id="SvgjsPath1033" d="M297 84.83332824707031L428.5 84.83332824707031L428.5 75L560 75" stroke="#323232" stroke-width="2" fill="none" marker-end="url(#SvgjsMarker1034)"></path><rect id="SvgjsRect1036" width="206" height="32" x="325.5" y="63.916664123535156" fill="#ffffff"></rect><text id="SvgjsText1037" font-family="微软雅黑" text-anchor="middle" font-size="13px" width="206px" fill="#323232" font-weight="400" align="top" lineHeight="16px" anchor="middle" family="微软雅黑" size="13px" weight="400" font-style="" opacity="1" y="62.291664123535156" transform="rotate(0)"><tspan id="SvgjsTspan1038" dy="16" x="428.5"><tspan id="SvgjsTspan1039" style="text-decoration:;">&lt;App /&gt;=&gt;React.createeEleement</tspan></tspan><tspan id="SvgjsTspan1040" dy="16" x="428.5"><tspan id="SvgjsTspan1041" style="text-decoration:;">(通过bebal转化)</tspan></tspan></text></g><g id="SvgjsG1042" transform="translate(41.5,436.1666564941406)"><path id="SvgjsPath1043" d="M 0 0L 239 0L 239 41L 0 41Z" stroke="rgba(50,50,50,1)" stroke-width="2" fill-opacity="1" fill="#ffffff"></path><g id="SvgjsG1044"><text id="SvgjsText1045" font-family="微软雅黑" text-anchor="middle" font-size="13px" width="219px" fill="#323232" font-weight="400" align="middle" lineHeight="125%" anchor="middle" family="微软雅黑" size="13px" weight="400" font-style="" opacity="1" y="10.875" transform="rotate(0)"><tspan id="SvgjsTspan1046" dy="16" x="119.5"><tspan id="SvgjsTspan1047" style="text-decoration:;">  mount(vdom, container);</tspan></tspan></text></g></g><g id="SvgjsG1048"><path id="SvgjsPath1049" d="M161 104.5L161 270.3333282470703L161 270.3333282470703L161 436.1666564941406" stroke="#323232" stroke-width="2" fill="none" marker-end="url(#SvgjsMarker1050)"></path></g><g id="SvgjsG1052"><path id="SvgjsPath1053" d="M600 125L600 165.5833282470703L161 165.5833282470703L161 436.1666564941406" stroke="#323232" stroke-width="2" fill="none" marker-end="url(#SvgjsMarker1054)"></path><rect id="SvgjsRect1056" width="33" height="16" x="249" y="157.5833282470703" fill="#ffffff"></rect><text id="SvgjsText1057" font-family="微软雅黑" text-anchor="middle" font-size="13px" width="33px" fill="#323232" font-weight="400" align="top" lineHeight="16px" anchor="middle" family="微软雅黑" size="13px" weight="400" font-style="" opacity="1" y="155.9583282470703" transform="rotate(0)"><tspan id="SvgjsTspan1058" dy="16" x="265.5"><tspan id="SvgjsTspan1059" style="text-decoration:;">vdom</tspan></tspan></text></g><g id="SvgjsG1060" transform="translate(41.5,1351.1666564941406)"><path id="SvgjsPath1061" d="M 0 0L 239 0L 239 33L 0 33Z" stroke="rgba(50,50,50,1)" stroke-width="2" fill-opacity="1" fill="#ffffff"></path><g id="SvgjsG1062"><text id="SvgjsText1063" font-family="微软雅黑" text-anchor="middle" font-size="13px" width="219px" fill="#323232" font-weight="400" align="middle" lineHeight="125%" anchor="middle" family="微软雅黑" size="13px" weight="400" font-style="" opacity="1" y="6.875" transform="rotate(0)"><tspan id="SvgjsTspan1064" dy="16" x="119.5"><tspan id="SvgjsTspan1065" style="text-decoration:;">container.appendChild(newDOM);</tspan></tspan></text></g></g><g id="SvgjsG1066"><path id="SvgjsPath1067" d="M161 477.1666564941406L161 914.1666564941406L161 914.1666564941406L161 1351.1666564941406" stroke="#323232" stroke-width="2" fill="none" marker-end="url(#SvgjsMarker1068)"></path></g><g id="SvgjsG1070"><path id="SvgjsPath1071" d="M280.5 456.6666564941406L379.25 456.6666564941406L379.25 456.6666564941406L478 456.6666564941406" stroke="#323232" stroke-width="2" fill="none" marker-end="url(#SvgjsMarker1072)"></path><rect id="SvgjsRect1074" width="61" height="16" x="348.75" y="448.6666564941406" fill="#ffffff"></rect><text id="SvgjsText1075" font-family="微软雅黑" text-anchor="middle" font-size="13px" width="61px" fill="#323232" font-weight="400" align="top" lineHeight="16px" anchor="middle" family="微软雅黑" size="13px" weight="400" font-style="" opacity="1" y="447.0416564941406" transform="rotate(0)"><tspan id="SvgjsTspan1076" dy="16" x="379.25"><tspan id="SvgjsTspan1077" style="text-decoration:;">传入Vdom</tspan></tspan></text></g><g id="SvgjsG1078" transform="translate(478,425.9166564941406)"><path id="SvgjsPath1079" d="M 0 0L 180 0L 180 61.5L 0 61.5L 0 0ZM 20 0L 20 61.5M 160 0L 160 61.5" stroke="rgba(50,50,50,1)" stroke-width="2" fill-opacity="1" fill="#ffffff"></path><g id="SvgjsG1080"><text id="SvgjsText1081" font-family="微软雅黑" text-anchor="middle" font-size="13px" width="140px" fill="#323232" font-weight="400" align="middle" lineHeight="125%" anchor="middle" family="微软雅黑" size="13px" weight="400" font-style="" opacity="1" y="21.125" transform="rotate(0)"><tspan id="SvgjsTspan1082" dy="16" x="90"><tspan id="SvgjsTspan1083" style="text-decoration:;">createDOM(vdom)</tspan></tspan></text></g></g><g id="SvgjsG1084"><path id="SvgjsPath1085" d="M568 487.4166564941406L568 635.2916564941406L568 635.2916564941406L568 783.1666564941406" stroke="#323232" stroke-width="2" fill="none" marker-end="url(#SvgjsMarker1086)"></path></g><g id="SvgjsG1088" transform="translate(473.5,783.1666564941406)"><path id="SvgjsPath1089" d="M 0 0L 189 0L 189 44.00000762939453L 0 44.00000762939453L 0 0ZM 20 0L 20 44.00000762939453M 169 0L 169 44.00000762939453" stroke="rgba(50,50,50,1)" stroke-width="2" fill-opacity="1" fill="#ffffff"></path><g id="SvgjsG1090"><text id="SvgjsText1091" font-family="微软雅黑" text-anchor="middle" font-size="13px" width="149px" fill="#323232" font-weight="400" align="middle" lineHeight="125%" anchor="middle" family="微软雅黑" size="13px" weight="400" font-style="" opacity="1" y="12.375003814697266" transform="rotate(0)"><tspan id="SvgjsTspan1092" dy="16" x="94.5"><tspan id="SvgjsTspan1093" style="text-decoration:;">在dom 上更新</tspan><tspan id="SvgjsTspan1094" style="text-decoration:;font-size: inherit;">props</tspan></tspan></text></g></g><g id="SvgjsG1095"><path id="SvgjsPath1096" d="M658 456.6666564941406L779.5 456.6666564941406L779.5 456.6666564941406L901 456.6666564941406" stroke="#323232" stroke-width="2" fill="none" marker-end="url(#SvgjsMarker1097)"></path><rect id="SvgjsRect1099" width="186" height="16" x="686.5" y="448.6666564941406" fill="#ffffff"></rect><text id="SvgjsText1100" font-family="微软雅黑" text-anchor="middle" font-size="13px" width="186px" fill="#323232" font-weight="400" align="top" lineHeight="16px" anchor="middle" family="微软雅黑" size="13px" weight="400" font-style="" opacity="1" y="447.0416564941406" transform="rotate(0)"><tspan id="SvgjsTspan1101" dy="16" x="779.5"><tspan id="SvgjsTspan1102" style="text-decoration:;">根据Vdom.type类l类型创建Dom</tspan></tspan></text></g><g id="SvgjsG1103" transform="translate(901,424.91665267944336)"><path id="SvgjsPath1104" d="M 0 31.750003814697266L 53 0L 106 31.750003814697266L 53 63.50000762939453L 0 31.750003814697266Z" stroke="rgba(50,50,50,1)" stroke-width="2" fill-opacity="1" fill="#ffffff"></path><g id="SvgjsG1105"><text id="SvgjsText1106" font-family="微软雅黑" text-anchor="middle" font-size="13px" width="86px" fill="#323232" font-weight="400" align="middle" lineHeight="125%" anchor="middle" family="微软雅黑" size="13px" weight="400" font-style="" opacity="1" y="22.125003814697266" transform="rotate(0)"><tspan id="SvgjsTspan1107" dy="16" x="53"><tspan id="SvgjsTspan1108" style="text-decoration:;">REACT_TEXT</tspan></tspan></text></g></g><g id="SvgjsG1109"><path id="SvgjsPath1110" d="M954 488.4166603088379L954 635.7916584014893L568 635.7916584014893L568 783.1666564941406" stroke="#323232" stroke-width="2" fill="none" marker-end="url(#SvgjsMarker1111)"></path><rect id="SvgjsRect1113" width="308" height="16" x="587.7" y="626.7916584014893" fill="#ffffff"></rect><text id="SvgjsText1114" font-family="微软雅黑" text-anchor="middle" font-size="13px" width="308px" fill="#323232" font-weight="400" align="top" lineHeight="16px" anchor="middle" family="微软雅黑" size="13px" weight="400" font-style="" opacity="1" y="625.1666584014893" transform="rotate(0)"><tspan id="SvgjsTspan1115" dy="16" x="741.7"><tspan id="SvgjsTspan1116" style="text-decoration:;">文本节点 document.createTextNode(props.content)</tspan></tspan></text></g><g id="SvgjsG1117"><path id="SvgjsPath1118" d="M1007 456.6666564941406L1049.5 456.6666564941406L1049.5 456.6666564941406L1092 456.6666564941406" stroke="#323232" stroke-width="2" fill="none" marker-end="url(#SvgjsMarker1119)"></path></g><g id="SvgjsG1121" transform="translate(1092,421.6666564941406)"><path id="SvgjsPath1122" d="M 0 35L 45 0L 90 35L 45 70L 0 35Z" stroke="rgba(50,50,50,1)" stroke-width="2" fill-opacity="1" fill="#ffffff"></path><g id="SvgjsG1123"><text id="SvgjsText1124" font-family="微软雅黑" text-anchor="middle" font-size="13px" width="70px" fill="#323232" font-weight="400" align="middle" lineHeight="125%" anchor="middle" family="微软雅黑" size="13px" weight="400" font-style="" opacity="1" y="25.375" transform="rotate(0)"><tspan id="SvgjsTspan1125" dy="16" x="45"><tspan id="SvgjsTspan1126" style="text-decoration:;">function</tspan></tspan></text></g></g><g id="SvgjsG1127"><path id="SvgjsPath1128" d="M1137 491.6666564941406L1137 695.1666641235352L566 695.1666641235352" stroke="#323232" stroke-width="2" fill="none" marker-end="url(#SvgjsMarker1129)"></path><rect id="SvgjsRect1131" width="241" height="16" x="832.7500038146972" y="687.1666641235352" fill="#ffffff"></rect><text id="SvgjsText1132" font-family="微软雅黑" text-anchor="middle" font-size="13px" width="241px" fill="#323232" font-weight="400" align="top" lineHeight="16px" anchor="middle" family="微软雅黑" size="13px" weight="400" font-style="" opacity="1" y="685.5416641235352" transform="rotate(0)"><tspan id="SvgjsTspan1133" dy="16" x="953.2500038146972"><tspan id="SvgjsTspan1134" style="text-decoration:;">原生html document.createElement(type)</tspan></tspan></text></g><g id="SvgjsG1135" transform="translate(1058,308.6666564941406)"><path id="SvgjsPath1136" d="M 0 35L 79 0L 158 35L 79 70L 0 35Z" stroke="rgba(50,50,50,1)" stroke-width="2" fill-opacity="1" fill="#ffffff"></path><g id="SvgjsG1137"><text id="SvgjsText1138" font-family="微软雅黑" text-anchor="middle" font-size="13px" width="138px" fill="#323232" font-weight="400" align="middle" lineHeight="125%" anchor="middle" family="微软雅黑" size="13px" weight="400" font-style="" opacity="1" y="25.375" transform="rotate(0)"><tspan id="SvgjsTspan1139" dy="16" x="79"><tspan id="SvgjsTspan1140" style="text-decoration:;">classComponent</tspan></tspan></text></g></g><g id="SvgjsG1141" transform="translate(700.5,208.16666412353516)"><path id="SvgjsPath1142" d="M 0 0L 167 0L 167 75.99999237060547L 0 75.99999237060547L 0 0ZM 20 0L 20 75.99999237060547M 147 0L 147 75.99999237060547" stroke="rgba(50,50,50,1)" stroke-width="2" fill-opacity="1" fill="#ffffff"></path><g id="SvgjsG1143"><text id="SvgjsText1144" font-family="微软雅黑" text-anchor="start" font-size="13px" width="127px" fill="#323232" font-weight="400" align="middle" lineHeight="125%" anchor="start" family="微软雅黑" size="13px" weight="400" font-style="" opacity="1" y="12.374996185302734" transform="rotate(0)"><tspan id="SvgjsTspan1145" dy="16" x="20"><tspan id="SvgjsTspan1146" style="text-decoration:;">1.创建类的实例</tspan></tspan><tspan id="SvgjsTspan1147" dy="16" x="20"><tspan id="SvgjsTspan1148" style="text-decoration:;">2.调用render方法获</tspan></tspan><tspan id="SvgjsTspan1149" dy="16" x="20"><tspan id="SvgjsTspan1150" style="text-decoration:;">取renderVdom</tspan></tspan></text></g></g><g id="SvgjsG1151"><path id="SvgjsPath1152" d="M700.5 246.1666603088379L568 246.1666603088379L568 425.9166564941406" stroke="#323232" stroke-width="2" fill="none" marker-end="url(#SvgjsMarker1153)"></path><rect id="SvgjsRect1155" width="61" height="16" x="537.5" y="261.79165840148926" fill="#ffffff"></rect><text id="SvgjsText1156" font-family="微软雅黑" text-anchor="middle" font-size="13px" width="61px" fill="#323232" font-weight="400" align="top" lineHeight="16px" anchor="middle" family="微软雅黑" size="13px" weight="400" font-style="" opacity="1" y="260.16665840148926" transform="rotate(0)"><tspan id="SvgjsTspan1157" dy="16" x="568"><tspan id="SvgjsTspan1158" style="text-decoration:;">传入Vdom</tspan></tspan></text></g><g id="SvgjsG1159"><path id="SvgjsPath1160" d="M1137 421.6666564941406L1137 400.1666564941406L1137 400.1666564941406L1137 378.6666564941406" stroke="#323232" stroke-width="2" fill="none" marker-end="url(#SvgjsMarker1161)"></path></g><g id="SvgjsG1163"><path id="SvgjsPath1164" d="M1137 308.6666564941406L1137 246.1666603088379L867.5 246.1666603088379" stroke="#323232" stroke-width="2" fill="none" marker-end="url(#SvgjsMarker1165)"></path></g><g id="SvgjsG1167"><path id="SvgjsPath1168" d="M1058 343.6666564941406L1007.5 343.6666564941406L1007.5 343.6666564941406L957 343.6666564941406" stroke="#323232" stroke-width="2" fill="none" marker-end="url(#SvgjsMarker1169)"></path></g><g id="SvgjsG1171" transform="translate(836,311.6666564941406)"><path id="SvgjsPath1172" d="M 0 0L 121 0L 121 64L 0 64L 0 0ZM 20 0L 20 64M 101 0L 101 64" stroke="rgba(50,50,50,1)" stroke-width="2" fill-opacity="1" fill="#ffffff"></path><g id="SvgjsG1173"><text id="SvgjsText1174" font-family="微软雅黑" text-anchor="start" font-size="13px" width="81px" fill="#323232" font-weight="400" align="middle" lineHeight="125%" anchor="start" family="微软雅黑" size="13px" weight="400" font-style="" opacity="1" y="14.375" transform="rotate(0)"><tspan id="SvgjsTspan1175" dy="16" x="20"><tspan id="SvgjsTspan1176" style="text-decoration:;">1.调用函数</tspan></tspan><tspan id="SvgjsTspan1177" dy="16" x="20"><tspan id="SvgjsTspan1178" style="text-decoration:;">2.获取Vdom</tspan></tspan></text></g></g><g id="SvgjsG1179"><path id="SvgjsPath1180" d="M836 343.6666564941406L568 343.6666564941406L568 425.9166564941406" stroke="#323232" stroke-width="2" fill="none" marker-end="url(#SvgjsMarker1181)"></path><rect id="SvgjsRect1183" width="61" height="16" x="630.375" y="335.6666564941406" fill="#ffffff"></rect><text id="SvgjsText1184" font-family="微软雅黑" text-anchor="middle" font-size="13px" width="61px" fill="#323232" font-weight="400" align="top" lineHeight="16px" anchor="middle" family="微软雅黑" size="13px" weight="400" font-style="" opacity="1" y="334.0416564941406" transform="rotate(0)"><tspan id="SvgjsTspan1185" dy="16" x="660.875"><tspan id="SvgjsTspan1186" style="text-decoration:;">传入Vdom</tspan></tspan></text></g><g id="SvgjsG1187"><path id="SvgjsPath1188" d="M568 827.1666641235352L568 997.666675567627L568 997.666675567627L568 1168.1666870117188" stroke="#323232" stroke-width="2" fill="none" marker-end="url(#SvgjsMarker1189)"></path></g><g id="SvgjsG1191" transform="translate(474.625,1168.1666870117188)"><path id="SvgjsPath1192" d="M 0 0L 186.75 0L 186.75 33L 0 33Z" stroke="rgba(50,50,50,1)" stroke-width="2" fill-opacity="1" fill="#ffffff"></path><g id="SvgjsG1193"><text id="SvgjsText1194" font-family="微软雅黑" text-anchor="middle" font-size="13px" width="167px" fill="#323232" font-weight="400" align="middle" lineHeight="125%" anchor="middle" family="微软雅黑" size="13px" weight="400" font-style="" opacity="1" y="6.875" transform="rotate(0)"><tspan id="SvgjsTspan1195" dy="16" x="93.5"><tspan id="SvgjsTspan1196" style="text-decoration:;">返回newDOM)</tspan></tspan></text></g></g><g id="SvgjsG1197"><path id="SvgjsPath1198" d="M474.625 1184.6666870117188L161 1184.6666870117188L161 1351.1666564941406" stroke="#323232" stroke-width="2" fill="none" marker-end="url(#SvgjsMarker1199)"></path></g><g id="SvgjsG1201"><path id="SvgjsPath1202" d="M662.5 805.1666603088379L785.75 805.1666603088379L785.75 805.1666603088379L909 805.1666603088379" stroke="#323232" stroke-width="2" fill="none" marker-end="url(#SvgjsMarker1203)"></path></g><g id="SvgjsG1205" transform="translate(909,770.1666603088379)"><path id="SvgjsPath1206" d="M 0 35L 45 0L 90 35L 45 70L 0 35Z" stroke="rgba(50,50,50,1)" stroke-width="2" fill-opacity="1" fill="#ffffff"></path><g id="SvgjsG1207"><text id="SvgjsText1208" font-family="微软雅黑" text-anchor="middle" font-size="13px" width="70px" fill="#323232" font-weight="400" align="middle" lineHeight="125%" anchor="middle" family="微软雅黑" size="13px" weight="400" font-style="" opacity="1" y="25.375" transform="rotate(0)"><tspan id="SvgjsTspan1209" dy="16" x="45"><tspan id="SvgjsTspan1210" style="text-decoration:;">children</tspan></tspan></text></g></g><g id="SvgjsG1211"><path id="SvgjsPath1212" d="M999 805.1666603088379L1036 805.1666603088379L1036 805.1666603088379L1073 805.1666603088379" stroke="#323232" stroke-width="2" fill="none" marker-end="url(#SvgjsMarker1213)"></path></g><g id="SvgjsG1215" transform="translate(1073,770.1666603088379)"><path id="SvgjsPath1216" d="M 0 35L 45 0L 90 35L 45 70L 0 35Z" stroke="rgba(50,50,50,1)" stroke-width="2" fill-opacity="1" fill="#ffffff"></path><g id="SvgjsG1217"><text id="SvgjsText1218" font-family="微软雅黑" text-anchor="middle" font-size="13px" width="70px" fill="#323232" font-weight="400" align="middle" lineHeight="125%" anchor="middle" family="微软雅黑" size="13px" weight="400" font-style="" opacity="1" y="25.375" transform="rotate(0)"><tspan id="SvgjsTspan1219" dy="16" x="45"><tspan id="SvgjsTspan1220" style="text-decoration:;">style</tspan></tspan></text></g></g><g id="SvgjsG1221"><path id="SvgjsPath1222" d="M1163 805.1666603088379L1219 805.1666603088379L1219 805.1666603088379L1275 805.1666603088379" stroke="#323232" stroke-width="2" fill="none" marker-end="url(#SvgjsMarker1223)"></path></g><g id="SvgjsG1225" transform="translate(1275,770.1666603088379)"><path id="SvgjsPath1226" d="M 0 35L 45 0L 90 35L 45 70L 0 35Z" stroke="rgba(50,50,50,1)" stroke-width="2" fill-opacity="1" fill="#ffffff"></path><g id="SvgjsG1227"><text id="SvgjsText1228" font-family="微软雅黑" text-anchor="middle" font-size="13px" width="70px" fill="#323232" font-weight="400" align="middle" lineHeight="125%" anchor="middle" family="微软雅黑" size="13px" weight="400" font-style="" opacity="1" y="17.375" transform="rotate(0)"><tspan id="SvgjsTspan1229" dy="16" x="45"><tspan id="SvgjsTspan1230" style="text-decoration:;">key.starts</tspan></tspan><tspan id="SvgjsTspan1231" dy="16" x="45"><tspan id="SvgjsTspan1232" style="text-decoration:;">With("on")</tspan></tspan></text></g></g><g id="SvgjsG1233"><path id="SvgjsPath1234" d="M1320 840.1666603088379L1320 1082.1666736602783L568 1082.1666736602783L568 1168.1666870117188" stroke="#323232" stroke-width="2" fill="none" marker-end="url(#SvgjsMarker1235)"></path><rect id="SvgjsRect1237" width="239" height="16" x="824.5" y="1074.1666736602783" fill="#ffffff"></rect><text id="SvgjsText1238" font-family="微软雅黑" text-anchor="middle" font-size="13px" width="239px" fill="#323232" font-weight="400" align="top" lineHeight="16px" anchor="middle" family="微软雅黑" size="13px" weight="400" font-style="" opacity="1" y="1072.5416736602783" transform="rotate(0)"><tspan id="SvgjsTspan1239" dy="16" x="944"><tspan id="SvgjsTspan1240" style="text-decoration:;">className 属性 dom[key] = props[key];</tspan></tspan></text></g><g id="SvgjsG1241"><path id="SvgjsPath1242" d="M954 840.1666603088379L954 883.6666669845581L915 883.6666669845581" stroke="#323232" stroke-width="2" fill="none" marker-end="url(#SvgjsMarker1243)"></path></g><g id="SvgjsG1245" transform="translate(678,854.1666669845581)"><path id="SvgjsPath1246" d="M 0 0L 237 0L 237 59L 0 59L 0 0ZM 20 0L 20 59M 217 0L 217 59" stroke="rgba(50,50,50,1)" stroke-width="2" fill-opacity="1" fill="#ffffff"></path><g id="SvgjsG1247"><text id="SvgjsText1248" font-family="微软雅黑" text-anchor="middle" font-size="13px" width="197px" fill="#323232" font-weight="400" align="middle" lineHeight="125%" anchor="middle" family="微软雅黑" size="13px" weight="400" font-style="" opacity="1" y="19.875" transform="rotate(0)"><tspan id="SvgjsTspan1249" dy="16" x="118.5"><tspan id="SvgjsTspan1250" style="text-decoration:;">  mount(children, dom);</tspan></tspan></text></g></g><g id="SvgjsG1251"><path id="SvgjsPath1252" d="M678 883.6666669845581L568 883.6666669845581L568 1168.1666870117188" stroke="#323232" stroke-width="2" fill="none" marker-end="url(#SvgjsMarker1253)"></path></g><g id="SvgjsG1255"><path id="SvgjsPath1256" d="M1118 840.1666603088379L1118 1004.1666736602783L568 1004.1666736602783L568 1168.1666870117188" stroke="#323232" stroke-width="2" fill="none" marker-end="url(#SvgjsMarker1257)"></path><rect id="SvgjsRect1259" width="80" height="16" x="803" y="995.5" fill="#ffffff"></rect><text id="SvgjsText1260" font-family="微软雅黑" text-anchor="middle" font-size="13px" width="80px" fill="#323232" font-weight="400" align="top" lineHeight="16px" anchor="middle" family="微软雅黑" size="13px" weight="400" font-style="" opacity="1" y="993.875" transform="rotate(0)"><tspan id="SvgjsTspan1261" dy="16" x="843"><tspan id="SvgjsTspan1262" style="text-decoration:;">更新style属性</tspan></tspan></text></g><g id="SvgjsG1263"><path id="SvgjsPath1264" d="M1365 805.1666603088379L1424.9285714285709 805.1666603088379L1424.9285714285709 807.5476158687046L1484.8571428571418 807.5476158687046" stroke="#323232" stroke-width="2" fill="none" marker-end="url(#SvgjsMarker1265)"></path><rect id="SvgjsRect1267" width="52" height="16" x="1398.9285714285709" y="798.3571380887713" fill="#ffffff"></rect><text id="SvgjsText1268" font-family="微软雅黑" text-anchor="middle" font-size="13px" width="52px" fill="#323232" font-weight="400" align="top" lineHeight="16px" anchor="middle" family="微软雅黑" size="13px" weight="400" font-style="" opacity="1" y="796.7321380887713" transform="rotate(0)"><tspan id="SvgjsTspan1269" dy="16" x="1424.9285714285709"><tspan id="SvgjsTspan1270" style="text-decoration:;">事件绑定</tspan></tspan></text></g><g id="SvgjsG1271" transform="translate(1484.8571428571418,770.1666603088379)"><path id="SvgjsPath1272" d="M 0 0L 205.71428571428692 0L 205.71428571428692 74.76191111973344L 0 74.76191111973344L 0 0ZM 20 0L 20 74.76191111973344M 185.71428571428692 0L 185.71428571428692 74.76191111973344" stroke="rgba(50,50,50,1)" stroke-width="2" fill-opacity="1" fill="#ffffff"></path><g id="SvgjsG1273"><text id="SvgjsText1274" font-family="微软雅黑" text-anchor="start" font-size="13px" width="166px" fill="#323232" font-weight="400" align="middle" lineHeight="125%" anchor="start" family="微软雅黑" size="13px" weight="400" font-style="" opacity="1" y="19.75595555986672" transform="rotate(0)"><tspan id="SvgjsTspan1275" dy="16" x="20"><tspan id="SvgjsTspan1276" style="text-decoration:;">1. 在Dom上存储handclick</tspan></tspan><tspan id="SvgjsTspan1277" dy="16" x="20"><tspan id="SvgjsTspan1278" style="text-decoration:;">2. 事件委托到document上</tspan></tspan></text></g></g><g id="SvgjsG1279"><path id="SvgjsPath1280" d="M1587.7142857142853 844.9285714285713L1587.7142857142853 985.6428571428567L1587.8454810495618 985.6428571428567L1587.8454810495618 1126.357142857142" stroke="#323232" stroke-width="2" fill="none" marker-end="url(#SvgjsMarker1281)"></path></g><g id="SvgjsG1283" transform="translate(1488.5597667638483,1126.357142857142)"><path id="SvgjsPath1284" d="M 0 0L 198.5714285714273 0L 198.5714285714273 70L 0 70L 0 0ZM 20 0L 20 70M 178.5714285714273 0L 178.5714285714273 70" stroke="rgba(50,50,50,1)" stroke-width="2" fill-opacity="1" fill="#ffffff"></path><g id="SvgjsG1285"><text id="SvgjsText1286" font-family="微软雅黑" text-anchor="start" font-size="13px" width="159px" fill="#323232" font-weight="400" align="middle" lineHeight="125%" anchor="start" family="微软雅黑" size="13px" weight="400" font-style="" opacity="1" y="9.375" transform="rotate(0)"><tspan id="SvgjsTspan1287" dy="16" x="20"><tspan id="SvgjsTspan1288" style="text-decoration:;">1. 设置批量更新模式</tspan></tspan><tspan id="SvgjsTspan1289" dy="16" x="20"><tspan id="SvgjsTspan1290" style="text-decoration:;">2. 递归出发节点绑定事件</tspan></tspan><tspan id="SvgjsTspan1291" dy="16" x="20"><tspan id="SvgjsTspan1292" style="text-decoration:;">3. 进行批量更新</tspan></tspan></text></g></g><g id="SvgjsG1293"><path id="SvgjsPath1294" d="M1587.8454810495618 1196.357142857142L1587.8454810495618 1477.69550069934L1532.000000000001 1477.69550069934" stroke="#323232" stroke-width="2" fill="none" marker-end="url(#SvgjsMarker1295)"></path></g><g id="SvgjsG1297" transform="translate(1310.571428571429,1446.1716860892677)"><path id="SvgjsPath1298" d="M 0 0L 221.42857142857156 0L 221.42857142857156 63.04762922014493L 0 63.04762922014493L 0 0ZM 20 0L 20 63.04762922014493M 201.42857142857156 0L 201.42857142857156 63.04762922014493" stroke="rgba(50,50,50,1)" stroke-width="2" fill-opacity="1" fill="#ffffff"></path><g id="SvgjsG1299"><text id="SvgjsText1300" font-family="微软雅黑" text-anchor="middle" font-size="13px" width="182px" fill="#323232" font-weight="400" align="middle" lineHeight="125%" anchor="middle" family="微软雅黑" size="13px" weight="400" font-style="" opacity="1" y="21.898814610072463" transform="rotate(0)"><tspan id="SvgjsTspan1301" dy="16" x="111"><tspan id="SvgjsTspan1302" style="text-decoration:;">通过updateQueue进行更新</tspan></tspan></text></g></g><g id="SvgjsG1303"><path id="SvgjsPath1304" d="M1310.571428571429 1477.69550069934L1257.0000000000005 1477.69550069934L1257.0000000000005 1477.6880192752428L1203.4285714285722 1477.6880192752428" stroke="#323232" stroke-width="2" fill="none" marker-end="url(#SvgjsMarker1305)"></path></g><g id="SvgjsG1307" transform="translate(1012.0000000000007,1442.6880192752428)"><path id="SvgjsPath1308" d="M 0 0L 191.42857142857156 0L 191.42857142857156 70L 0 70L 0 0ZM 20 0L 20 70M 171.42857142857156 0L 171.42857142857156 70" stroke="rgba(50,50,50,1)" stroke-width="2" fill-opacity="1" fill="#ffffff"></path><g id="SvgjsG1309"><text id="SvgjsText1310" font-family="微软雅黑" text-anchor="start" font-size="13px" width="152px" fill="#323232" font-weight="400" align="middle" lineHeight="100%" anchor="start" family="微软雅黑" size="13px" weight="400" font-style="" opacity="1" y="15.5" transform="rotate(0)"><tspan id="SvgjsTspan1311" dy="13" x="20"><tspan id="SvgjsTspan1312" style="text-decoration:;">1. 调用组件实例的</tspan></tspan><tspan id="SvgjsTspan1313" dy="13" x="20"><tspan id="SvgjsTspan1314" style="text-decoration:;">updateComponent</tspan></tspan><tspan id="SvgjsTspan1315" dy="13" x="20"><tspan id="SvgjsTspan1316" style="text-decoration:;">2. 获取newRenderVdom</tspan></tspan></text></g></g><g id="SvgjsG1317"><path id="SvgjsPath1318" d="M1012.0000000000007 1477.6880192752428L939.160297792585 1477.6880192752428L939.160297792585 1477.9086014070697L866.3205955851695 1477.9086014070697" stroke="#323232" stroke-width="2" fill="none" marker-end="url(#SvgjsMarker1319)"></path></g><g id="SvgjsG1321" transform="translate(691.9999999999982,1449.3847944263916)"><path id="SvgjsPath1322" d="M 0 0L 174.3205955851713 0L 174.3205955851713 57.047613961355864L 0 57.047613961355864L 0 0ZM 20 0L 20 57.047613961355864M 154.3205955851713 0L 154.3205955851713 57.047613961355864" stroke="rgba(50,50,50,1)" stroke-width="2" fill-opacity="1" fill="#ffffff"></path><g id="SvgjsG1323"><text id="SvgjsText1324" font-family="微软雅黑" text-anchor="middle" font-size="13px" width="135px" fill="#323232" font-weight="400" align="middle" lineHeight="125%" anchor="middle" family="微软雅黑" size="13px" weight="400" font-style="" opacity="1" y="18.898806980677932" transform="rotate(0)"><tspan id="SvgjsTspan1325" dy="16" x="87.5"><tspan id="SvgjsTspan1326" style="text-decoration:;">1. 深度对比VDom</tspan></tspan></text></g></g><g id="SvgjsG1327"><path id="SvgjsPath1328" d="M161 1384.1666564941406L161 1458.1190425327845L161 1458.1190425327845L161 1532.0714285714284" stroke="#323232" stroke-width="2" fill="none" marker-end="url(#SvgjsMarker1329)"></path></g><g id="SvgjsG1331" transform="translate(111,1532.0714285714284)"><path id="SvgjsPath1332" d="M 16.666666666666668 0L 83.33333333333333 0C 105.55555555555556 0 105.55555555555556 50 83.33333333333333 50L 16.666666666666668 50C -5.555555555555556 50 -5.555555555555556 0 16.666666666666668 0Z" stroke="rgba(50,50,50,1)" stroke-width="2" fill-opacity="1" fill="#ffffff"></path><g id="SvgjsG1333"><text id="SvgjsText1334" font-family="微软雅黑" text-anchor="middle" font-size="13px" width="80px" fill="#323232" font-weight="400" align="middle" lineHeight="125%" anchor="middle" family="微软雅黑" size="13px" weight="400" font-style="" opacity="1" y="15.375" transform="rotate(0)"><tspan id="SvgjsTspan1335" dy="16" x="50"><tspan id="SvgjsTspan1336" style="text-decoration:;">结束</tspan></tspan></text></g></g><g id="SvgjsG1337"><path id="SvgjsPath1338" d="M691.9999999999982 1477.9086014070697L609.8571428571408 1477.9086014070697L609.8571428571408 1477.930567734117L527.7142857142837 1477.930567734117" stroke="#323232" stroke-width="2" fill="none" marker-end="url(#SvgjsMarker1339)"></path></g><g id="SvgjsG1341" transform="translate(376.2857142857147,1447.8589353758728)"><path id="SvgjsPath1342" d="M 0 0L 151.42857142857133 0L 151.42857142857133 60.1432647164886L 0 60.1432647164886L 0 0ZM 20 0L 20 60.1432647164886M 131.42857142857133 0L 131.42857142857133 60.1432647164886" stroke="rgba(50,50,50,1)" stroke-width="2" fill-opacity="1" fill="#ffffff"></path><g id="SvgjsG1343"><text id="SvgjsText1344" font-family="微软雅黑" text-anchor="middle" font-size="13px" width="112px" fill="#323232" font-weight="400" align="middle" lineHeight="125%" anchor="middle" family="微软雅黑" size="13px" weight="400" font-style="" opacity="1" y="20.4466323582443" transform="rotate(0)"><tspan id="SvgjsTspan1345" dy="16" x="76"><tspan id="SvgjsTspan1346" style="text-decoration:;">updateElement</tspan></tspan></text></g></g><g id="SvgjsG1347"><path id="SvgjsPath1348" d="M376.2857142857147 1477.930567734117L161 1477.930567734117L161 1532.0714285714284" stroke="#323232" stroke-width="2" fill="none" marker-end="url(#SvgjsMarker1349)"></path></g></svg>